<svg width="61" height="60" viewBox="0 0 61 60" fill="none" xmlns="http://www.w3.org/2000/svg">
<circle cx="30.75" cy="30" r="30" fill="#00535D"/>
<g clip-path="url(#clip0_884_54799)">
<path d="M44.7498 18.4158V23.2492C44.7498 23.5696 44.6225 23.877 44.3959 24.1036C44.1693 24.3302 43.862 24.4575 43.5415 24.4575C43.221 24.4575 42.9137 24.3302 42.6871 24.1036C42.4605 23.877 42.3331 23.5696 42.3331 23.2492V20.1546L35.929 26.5237C35.8204 26.6511 35.6865 26.7545 35.5358 26.8274C35.3851 26.9003 35.2209 26.9411 35.0536 26.9472C34.8863 26.9533 34.7196 26.9246 34.564 26.8628C34.4084 26.8011 34.2673 26.7077 34.1497 26.5886C34.0321 26.4695 33.9405 26.3272 33.8808 26.1709C33.8211 26.0145 33.7945 25.8474 33.8027 25.6802C33.811 25.513 33.8538 25.3494 33.9286 25.1996C34.0035 25.0499 34.1086 24.9173 34.2373 24.8103L40.6536 18.4158H37.4998C37.1793 18.4158 36.872 18.2885 36.6454 18.0619C36.4188 17.8353 36.2915 17.528 36.2915 17.2075C36.2915 16.887 36.4188 16.5797 36.6454 16.3531C36.872 16.1265 37.1793 15.9992 37.4998 15.9992H42.3331C42.9741 15.9992 43.5888 16.2538 44.042 16.707C44.4952 17.1602 44.7498 17.7749 44.7498 18.4158ZM40.7079 33.9502C40.0103 33.2863 39.0837 32.9167 38.1207 32.9181C37.1576 32.9194 36.2321 33.2916 35.5363 33.9574L33.2332 35.898C31.3531 35.1201 29.6453 33.9784 28.2079 32.5385C26.7704 31.0985 25.6317 29.3887 24.857 27.5073L26.7904 25.2115C27.4561 24.5157 27.8283 23.5901 27.8297 22.6271C27.831 21.6641 27.4614 20.7375 26.7976 20.0398C26.7976 20.0398 24.5598 17.1338 24.5235 17.0951C23.8335 16.4014 22.8985 16.0067 21.9201 15.9963C20.9417 15.9859 19.9984 16.3606 19.2939 17.0395L17.9055 18.2479C8.57715 28.1671 32.6471 52.2479 42.5555 42.777L43.6575 41.5095C44.3577 40.8073 44.751 39.8561 44.751 38.8645C44.751 37.8728 44.3577 36.9216 43.6575 36.2194C43.6176 36.188 40.7079 33.9502 40.7079 33.9502Z" fill="#CCDDDF"/>
</g>
<defs>
<clipPath id="clip0_884_54799">
<rect width="29" height="29" fill="white" transform="translate(15.75 16)"/>
</clipPath>
</defs>
</svg>
