<svg width="83" height="82" viewBox="0 0 83 82" fill="none" xmlns="http://www.w3.org/2000/svg">
<mask id="mask0_2270_6438" style="mask-type:alpha" maskUnits="userSpaceOnUse" x="0" y="0" width="83" height="82">
<rect x="0.52832" width="82" height="82" fill="#D9D9D9"/>
</mask>
<g mask="url(#mask0_2270_6438)">
<path d="M3.94499 61.5C2.97693 61.5 2.16547 61.1726 1.51061 60.5177C0.855751 59.8629 0.52832 59.0514 0.52832 58.0833V56.1188C0.52832 53.6701 1.7811 51.6771 4.28665 50.1396C6.79221 48.6021 10.095 47.8333 14.195 47.8333C14.9353 47.8333 15.6471 47.8476 16.3304 47.876C17.0137 47.9045 17.6686 47.9757 18.295 48.0896C17.4978 49.2854 16.8998 50.5382 16.5012 51.8479C16.1026 53.1576 15.9033 54.5243 15.9033 55.9479V61.5H3.94499ZM24.445 61.5C23.4769 61.5 22.6655 61.1726 22.0106 60.5177C21.3558 59.8629 21.0283 59.0514 21.0283 58.0833V55.9479C21.0283 54.1257 21.5266 52.4601 22.5231 50.951C23.5196 49.442 24.929 48.1181 26.7512 46.9792C28.5735 45.8403 30.7516 44.9861 33.2856 44.4167C35.8196 43.8472 38.5672 43.5625 41.5283 43.5625C44.5464 43.5625 47.3224 43.8472 49.8564 44.4167C52.3905 44.9861 54.5686 45.8403 56.3908 46.9792C58.213 48.1181 59.6082 49.442 60.5762 50.951C61.5443 52.4601 62.0283 54.1257 62.0283 55.9479V58.0833C62.0283 59.0514 61.7009 59.8629 61.046 60.5177C60.3912 61.1726 59.5797 61.5 58.6117 61.5H24.445ZM67.1533 61.5V55.9479C67.1533 54.4674 66.9683 53.0722 66.5981 51.7625C66.228 50.4528 65.6728 49.2285 64.9325 48.0896C65.5589 47.9757 66.1995 47.9045 66.8544 47.876C67.5092 47.8476 68.1783 47.8333 68.8617 47.8333C72.9617 47.8333 76.2644 48.5878 78.77 50.0969C81.2755 51.6059 82.5283 53.6132 82.5283 56.1188V58.0833C82.5283 59.0514 82.2009 59.8629 81.546 60.5177C80.8912 61.1726 80.0797 61.5 79.1117 61.5H67.1533ZM28.2887 54.6667H54.8533C54.2839 53.5278 52.7037 52.5312 50.1127 51.6771C47.5217 50.8229 44.6603 50.3958 41.5283 50.3958C38.3964 50.3958 35.5349 50.8229 32.9439 51.6771C30.353 52.5312 28.8012 53.5278 28.2887 54.6667ZM14.195 44.4167C12.3158 44.4167 10.7071 43.7476 9.36895 42.4094C8.03075 41.0712 7.36165 39.4625 7.36165 37.5833C7.36165 35.6472 8.03075 34.0243 9.36895 32.7146C10.7071 31.4049 12.3158 30.75 14.195 30.75C16.1311 30.75 17.754 31.4049 19.0637 32.7146C20.3735 34.0243 21.0283 35.6472 21.0283 37.5833C21.0283 39.4625 20.3735 41.0712 19.0637 42.4094C17.754 43.7476 16.1311 44.4167 14.195 44.4167ZM68.8617 44.4167C66.9825 44.4167 65.3738 43.7476 64.0356 42.4094C62.6974 41.0712 62.0283 39.4625 62.0283 37.5833C62.0283 35.6472 62.6974 34.0243 64.0356 32.7146C65.3738 31.4049 66.9825 30.75 68.8617 30.75C70.7978 30.75 72.4207 31.4049 73.7304 32.7146C75.0401 34.0243 75.695 35.6472 75.695 37.5833C75.695 39.4625 75.0401 41.0712 73.7304 42.4094C72.4207 43.7476 70.7978 44.4167 68.8617 44.4167ZM41.5283 41C38.6811 41 36.261 40.0035 34.2679 38.0104C32.2748 36.0174 31.2783 33.5972 31.2783 30.75C31.2783 27.8458 32.2748 25.4115 34.2679 23.4469C36.261 21.4823 38.6811 20.5 41.5283 20.5C44.4325 20.5 46.8669 21.4823 48.8314 23.4469C50.796 25.4115 51.7783 27.8458 51.7783 30.75C51.7783 33.5972 50.796 36.0174 48.8314 38.0104C46.8669 40.0035 44.4325 41 41.5283 41ZM41.5283 34.1667C42.4964 34.1667 43.3078 33.8392 43.9627 33.1844C44.6176 32.5295 44.945 31.7181 44.945 30.75C44.945 29.7819 44.6176 28.9705 43.9627 28.3156C43.3078 27.6608 42.4964 27.3333 41.5283 27.3333C40.5603 27.3333 39.7488 27.6608 39.0939 28.3156C38.4391 28.9705 38.1117 29.7819 38.1117 30.75C38.1117 31.7181 38.4391 32.5295 39.0939 33.1844C39.7488 33.8392 40.5603 34.1667 41.5283 34.1667Z" fill="white"/>
</g>
</svg>
